{
    "asset" : {
        "generator" : "Khronos glTF Blender I/O v3.2.40",
        "version" : "2.0"
    },
    "scene" : 0,
    "scenes" : [
        {
            "name" : "Scene",
            "nodes" : [
                0,
                1,
                2,
                3,
                4,
                5,
                6,
                7
            ]
        }
    ],
    "nodes" : [
        {
            "mesh" : 0,
            "name" : "Curve",
            "rotation" : [
                0.7172302603721619,
                0,
                0,
                0.6968362331390381
            ],
            "translation" : [
                0,
                0.00023521258844994009,
                -0.0014441218227148056
            ]
        },
        {
            "mesh" : 1,
            "name" : "Curve.001",
            "rotation" : [
                0.7172302603721619,
                0,
                0,
                0.6968362331390381
            ],
            "translation" : [
                0,
                0.00023521258844994009,
                -0.0014441218227148056
            ]
        },
        {
            "mesh" : 2,
            "name" : "Curve.002",
            "rotation" : [
                0.7172302603721619,
                0,
                0,
                0.6968362331390381
            ],
            "translation" : [
                0,
                0.00023521258844994009,
                -0.0014441218227148056
            ]
        },
        {
            "mesh" : 3,
            "name" : "Curve.003",
            "rotation" : [
                0.7071068286895752,
                0,
                0,
                0.7071068286895752
            ],
            "translation" : [
                0,
                0.00023521258844994009,
                6.407173350453377e-05
            ]
        },
        {
            "mesh" : 4,
            "name" : "Curve.004",
            "rotation" : [
                0.7172302603721619,
                0,
                0,
                0.6968362331390381
            ],
            "translation" : [
                0,
                0.0002491817867849022,
                -0.0002420964592602104
            ]
        },
        {
            "mesh" : 5,
            "name" : "Curve.005",
            "rotation" : [
                0.7172302603721619,
                0,
                0,
                0.6968362331390381
            ],
            "translation" : [
                0,
                0.0002491817867849022,
                -0.0002420964592602104
            ]
        },
        {
            "mesh" : 6,
            "name" : "Curve.006",
            "rotation" : [
                0.7172302603721619,
                0,
                0,
                0.6968362331390381
            ],
            "translation" : [
                0,
                0.0002491817867849022,
                -0.0002420964592602104
            ]
        },
        {
            "mesh" : 7,
            "name" : "Curve.007",
            "rotation" : [
                0.7172302603721619,
                0,
                0,
                0.6968362331390381
            ],
            "translation" : [
                0,
                0.0002491817867849022,
                -0.0002420964592602104
            ]
        }
    ],
    "materials" : [
        {
            "doubleSided" : true,
            "name" : "SVGMat",
            "pbrMetallicRoughness" : {
                "baseColorFactor" : [
                    0.006995410192757845,
                    0.9473065137863159,
                    0.09758734703063965,
                    1
                ],
                "metallicFactor" : 0,
                "roughnessFactor" : 0.4000000059604645
            }
        },
        {
            "doubleSided" : true,
            "name" : "SVGMat.001",
            "pbrMetallicRoughness" : {
                "baseColorFactor" : [
                    0.006995410192757845,
                    0.9473065137863159,
                    0.09758734703063965,
                    1
                ],
                "metallicFactor" : 0,
                "roughnessFactor" : 0.4000000059604645
            }
        },
        {
            "doubleSided" : true,
            "name" : "SVGMat.002",
            "pbrMetallicRoughness" : {
                "baseColorFactor" : [
                    0.006995410192757845,
                    0.9473065137863159,
                    0.09758734703063965,
                    1
                ],
                "metallicFactor" : 0,
                "roughnessFactor" : 0.4000000059604645
            }
        },
        {
            "doubleSided" : true,
            "name" : "SVGMat.003",
            "pbrMetallicRoughness" : {
                "baseColorFactor" : [
                    0.006995410192757845,
                    0.9473065137863159,
                    0.09758734703063965,
                    1
                ],
                "metallicFactor" : 0,
                "roughnessFactor" : 0.4000000059604645
            }
        },
        {
            "doubleSided" : true,
            "name" : "SVGMat.004",
            "pbrMetallicRoughness" : {
                "baseColorFactor" : [
                    1,
                    1,
                    1,
                    1
                ],
                "metallicFactor" : 0,
                "roughnessFactor" : 0.4000000059604645
            }
        }
    ],
    "meshes" : [
        {
            "name" : "Curve",
            "primitives" : [
                {
                    "attributes" : {
                        "POSITION" : 0,
                        "NORMAL" : 1,
                        "TEXCOORD_0" : 2
                    },
                    "indices" : 3,
                    "material" : 0
                }
            ]
        },
        {
            "name" : "Curve.001",
            "primitives" : [
                {
                    "attributes" : {
                        "POSITION" : 4,
                        "NORMAL" : 5,
                        "TEXCOORD_0" : 6
                    },
                    "indices" : 7,
                    "material" : 1
                }
            ]
        },
        {
            "name" : "Curve.002",
            "primitives" : [
                {
                    "attributes" : {
                        "POSITION" : 8,
                        "NORMAL" : 9,
                        "TEXCOORD_0" : 10
                    },
                    "indices" : 11,
                    "material" : 2
                }
            ]
        },
        {
            "name" : "Curve.003",
            "primitives" : [
                {
                    "attributes" : {
                        "POSITION" : 12,
                        "NORMAL" : 13,
                        "TEXCOORD_0" : 14
                    },
                    "indices" : 11,
                    "material" : 3
                }
            ]
        },
        {
            "name" : "Curve.004",
            "primitives" : [
                {
                    "attributes" : {
                        "POSITION" : 15,
                        "NORMAL" : 16,
                        "TEXCOORD_0" : 17
                    },
                    "indices" : 3,
                    "material" : 4
                }
            ]
        },
        {
            "name" : "Curve.005",
            "primitives" : [
                {
                    "attributes" : {
                        "POSITION" : 18,
                        "NORMAL" : 19,
                        "TEXCOORD_0" : 20
                    },
                    "indices" : 21,
                    "material" : 4
                }
            ]
        },
        {
            "name" : "Curve.006",
            "primitives" : [
                {
                    "attributes" : {
                        "POSITION" : 22,
                        "NORMAL" : 23,
                        "TEXCOORD_0" : 24
                    },
                    "indices" : 11,
                    "material" : 4
                }
            ]
        },
        {
            "name" : "Curve.007",
            "primitives" : [
                {
                    "attributes" : {
                        "POSITION" : 25,
                        "NORMAL" : 26,
                        "TEXCOORD_0" : 27
                    },
                    "indices" : 11,
                    "material" : 4
                }
            ]
        }
    ],
    "accessors" : [
        {
            "bufferView" : 0,
            "componentType" : 5126,
            "count" : 4,
            "max" : [
                0.005399762187153101,
                0,
                0.023238137364387512
            ],
            "min" : [
                -0.0092009911313653,
                0,
                -0.0024833185598254204
            ],
            "type" : "VEC3"
        },
        {
            "bufferView" : 1,
            "componentType" : 5126,
            "count" : 4,
            "type" : "VEC3"
        },
        {
            "bufferView" : 2,
            "componentType" : 5126,
            "count" : 4,
            "type" : "VEC2"
        },
        {
            "bufferView" : 3,
            "componentType" : 5123,
            "count" : 6,
            "type" : "SCALAR"
        },
        {
            "bufferView" : 4,
            "componentType" : 5126,
            "count" : 6,
            "max" : [
                0.014438371174037457,
                0,
                0.00817598681896925
            ],
            "min" : [
                -0.022179430350661278,
                0,
                -0.022643376141786575
            ],
            "type" : "VEC3"
        },
        {
            "bufferView" : 5,
            "componentType" : 5126,
            "count" : 6,
            "type" : "VEC3"
        },
        {
            "bufferView" : 6,
            "componentType" : 5126,
            "count" : 6,
            "type" : "VEC2"
        },
        {
            "bufferView" : 7,
            "componentType" : 5123,
            "count" : 6,
            "type" : "SCALAR"
        },
        {
            "bufferView" : 8,
            "componentType" : 5126,
            "count" : 3,
            "max" : [
                0.012352420948445797,
                0,
                -0.005495748482644558
            ],
            "min" : [
                0.003545694751664996,
                0,
                -0.023106828331947327
            ],
            "type" : "VEC3"
        },
        {
            "bufferView" : 9,
            "componentType" : 5126,
            "count" : 3,
            "type" : "VEC3"
        },
        {
            "bufferView" : 10,
            "componentType" : 5126,
            "count" : 3,
            "type" : "VEC2"
        },
        {
            "bufferView" : 11,
            "componentType" : 5123,
            "count" : 3,
            "type" : "SCALAR"
        },
        {
            "bufferView" : 12,
            "componentType" : 5126,
            "count" : 3,
            "max" : [
                0.024635547772049904,
                0,
                -0.012205508537590504
            ],
            "min" : [
                0.015133495442569256,
                0,
                -0.023328306153416634
            ],
            "type" : "VEC3"
        },
        {
            "bufferView" : 13,
            "componentType" : 5126,
            "count" : 3,
            "type" : "VEC3"
        },
        {
            "bufferView" : 14,
            "componentType" : 5126,
            "count" : 3,
            "type" : "VEC2"
        },
        {
            "bufferView" : 15,
            "componentType" : 5126,
            "count" : 4,
            "max" : [
                0.005171016324311495,
                0,
                0.024630073457956314
            ],
            "min" : [
                -0.009429736994206905,
                0,
                -0.00109135452657938
            ],
            "type" : "VEC3"
        },
        {
            "bufferView" : 16,
            "componentType" : 5126,
            "count" : 4,
            "type" : "VEC3"
        },
        {
            "bufferView" : 17,
            "componentType" : 5126,
            "count" : 4,
            "type" : "VEC2"
        },
        {
            "bufferView" : 18,
            "componentType" : 5126,
            "count" : 4,
            "max" : [
                0.01420948188751936,
                0,
                0.009567922912538052
            ],
            "min" : [
                -0.02240818925201893,
                0,
                -0.021251413971185684
            ],
            "type" : "VEC3"
        },
        {
            "bufferView" : 19,
            "componentType" : 5126,
            "count" : 4,
            "type" : "VEC3"
        },
        {
            "bufferView" : 20,
            "componentType" : 5126,
            "count" : 4,
            "type" : "VEC2"
        },
        {
            "bufferView" : 21,
            "componentType" : 5123,
            "count" : 6,
            "type" : "SCALAR"
        },
        {
            "bufferView" : 22,
            "componentType" : 5126,
            "count" : 3,
            "max" : [
                0.012123818509280682,
                0,
                -0.004103782586753368
            ],
            "min" : [
                0.00331694888882339,
                0,
                -0.021714862436056137
            ],
            "type" : "VEC3"
        },
        {
            "bufferView" : 23,
            "componentType" : 5126,
            "count" : 3,
            "type" : "VEC3"
        },
        {
            "bufferView" : 24,
            "componentType" : 5126,
            "count" : 3,
            "type" : "VEC2"
        },
        {
            "bufferView" : 25,
            "componentType" : 5126,
            "count" : 3,
            "max" : [
                0.02440694160759449,
                0,
                -0.010823790915310383
            ],
            "min" : [
                0.01490489300340414,
                0,
                -0.021946582943201065
            ],
            "type" : "VEC3"
        },
        {
            "bufferView" : 26,
            "componentType" : 5126,
            "count" : 3,
            "type" : "VEC3"
        },
        {
            "bufferView" : 27,
            "componentType" : 5126,
            "count" : 3,
            "type" : "VEC2"
        }
    ],
    "bufferViews" : [
        {
            "buffer" : 0,
            "byteLength" : 48,
            "byteOffset" : 0
        },
        {
            "buffer" : 0,
            "byteLength" : 48,
            "byteOffset" : 48
        },
        {
            "buffer" : 0,
            "byteLength" : 32,
            "byteOffset" : 96
        },
        {
            "buffer" : 0,
            "byteLength" : 12,
            "byteOffset" : 128
        },
        {
            "buffer" : 0,
            "byteLength" : 72,
            "byteOffset" : 140
        },
        {
            "buffer" : 0,
            "byteLength" : 72,
            "byteOffset" : 212
        },
        {
            "buffer" : 0,
            "byteLength" : 48,
            "byteOffset" : 284
        },
        {
            "buffer" : 0,
            "byteLength" : 12,
            "byteOffset" : 332
        },
        {
            "buffer" : 0,
            "byteLength" : 36,
            "byteOffset" : 344
        },
        {
            "buffer" : 0,
            "byteLength" : 36,
            "byteOffset" : 380
        },
        {
            "buffer" : 0,
            "byteLength" : 24,
            "byteOffset" : 416
        },
        {
            "buffer" : 0,
            "byteLength" : 6,
            "byteOffset" : 440
        },
        {
            "buffer" : 0,
            "byteLength" : 36,
            "byteOffset" : 448
        },
        {
            "buffer" : 0,
            "byteLength" : 36,
            "byteOffset" : 484
        },
        {
            "buffer" : 0,
            "byteLength" : 24,
            "byteOffset" : 520
        },
        {
            "buffer" : 0,
            "byteLength" : 48,
            "byteOffset" : 544
        },
        {
            "buffer" : 0,
            "byteLength" : 48,
            "byteOffset" : 592
        },
        {
            "buffer" : 0,
            "byteLength" : 32,
            "byteOffset" : 640
        },
        {
            "buffer" : 0,
            "byteLength" : 48,
            "byteOffset" : 672
        },
        {
            "buffer" : 0,
            "byteLength" : 48,
            "byteOffset" : 720
        },
        {
            "buffer" : 0,
            "byteLength" : 32,
            "byteOffset" : 768
        },
        {
            "buffer" : 0,
            "byteLength" : 12,
            "byteOffset" : 800
        },
        {
            "buffer" : 0,
            "byteLength" : 36,
            "byteOffset" : 812
        },
        {
            "buffer" : 0,
            "byteLength" : 36,
            "byteOffset" : 848
        },
        {
            "buffer" : 0,
            "byteLength" : 24,
            "byteOffset" : 884
        },
        {
            "buffer" : 0,
            "byteLength" : 36,
            "byteOffset" : 908
        },
        {
            "buffer" : 0,
            "byteLength" : 36,
            "byteOffset" : 944
        },
        {
            "buffer" : 0,
            "byteLength" : 24,
            "byteOffset" : 980
        }
    ],
    "buffers" : [
        {
            "byteLength" : 1004,
            "uri" : "data:application/octet-stream;base64,"
        }
    ]
}
